<svg xmlns="http://www.w3.org/2000/svg" viewBox="0 0 64 64"><path fill="#ccc" d="M15 3h34v42H15z"/><path fill="#b3b3b3" d="M53 57H11l2-12h38z"/><path fill="gray" d="M11 57h42v4H11z"/><rect width="26" height="26" x="19" y="7" fill="#29abe2" rx="3" ry="3"/><path fill="#fbb03b" d="M38 37h7v4h-7z"/><path d="M22 12.018V14h2l.018-2H31v-2h-6.982A2.02 2.02 0 0 0 22 12.018"/><path d="M10 61a1 1 0 0 0 1 1h42a1 1 0 0 0 1-1v-4a1 1 0 0 0-.018-.087 1 1 0 0 0 0-.078l-2-12A1 1 0 0 0 51 44h-1V3a1 1 0 0 0-1-1H15a1 1 0 0 0-1 1v41h-1a1 1 0 0 0-.986.835l-2 12a1 1 0 0 0 0 .078A1 1 0 0 0 10 57Zm42-1H12v-2h40ZM16 4h32v40H16Zm-2.153 42h36.306l1.666 10H12.181Z"/><path d="M42 6H22a4 4 0 0 0-4 4v20a4 4 0 0 0 4 4h20a4 4 0 0 0 4-4V10a4 4 0 0 0-4-4m2 24a2 2 0 0 1-2 2H22a2 2 0 0 1-2-2V10a2 2 0 0 1 2-2h20a2 2 0 0 1 2 2Z"/><path d="M33 10h2v2h-2zM15 52h2v2h-2zM15 48h2v2h-2zM19 48h2v2h-2zM23 48h2v2h-2zM27 48h2v2h-2zM31 48h2v2h-2zM35 48h2v2h-2zM39 48h2v2h-2zM43 48h2v2h-2zM47 48h2v2h-2zM19 52h2v2h-2zM23 52h2v2h-2zM39 52h2v2h-2zM43 52h2v2h-2zM47 52h2v2h-2zM27 52h10v2H27zM45 36h-7a1 1 0 0 0-1 1v1h-6v2h6v1a1 1 0 0 0 1 1h7a1 1 0 0 0 1-1v-4a1 1 0 0 0-1-1m-1 4h-5v-2h5ZM18 40h2v2h-2z"/></svg>