<?xml version="1.0" ?><svg viewBox="0 0 64 64" xmlns="http://www.w3.org/2000/svg"><title/><g id="LineColor"><rect fill="#ccc" height="42" width="34" x="15" y="3"/><polygon fill="#b3b3b3" points="53 57 11 57 13 45 51 45 53 57"/><rect fill="gray" height="4" width="42" x="11" y="57"/><rect fill="#29abe2" height="26" rx="3" ry="3" width="26" x="19" y="7"/><rect fill="#fbb03b" height="4" width="7" x="38" y="37"/></g><g id="Expand"><path d="M22,12.018V14h2l.018-2H31V10H24.018A2.02,2.02,0,0,0,22,12.018Z"/><path d="M10,61a1,1,0,0,0,1,1H53a1,1,0,0,0,1-1V57a.838.838,0,0,0-.018-.087.679.679,0,0,0,0-.078l-2-12A1,1,0,0,0,51,44H50V3a1,1,0,0,0-1-1H15a1,1,0,0,0-1,1V44H13a1,1,0,0,0-.986.835l-2,12a.679.679,0,0,0,0,.078A.838.838,0,0,0,10,57Zm42-1H12V58H52ZM16,4H48V44H16ZM13.847,46H50.153l1.666,10H12.181Z"/><path d="M42,6H22a4,4,0,0,0-4,4V30a4,4,0,0,0,4,4H42a4,4,0,0,0,4-4V10A4,4,0,0,0,42,6Zm2,24a2,2,0,0,1-2,2H22a2,2,0,0,1-2-2V10a2,2,0,0,1,2-2H42a2,2,0,0,1,2,2Z"/><rect height="2" width="2" x="33" y="10"/><rect height="2" width="2" x="15" y="52"/><rect height="2" width="2" x="15" y="48"/><rect height="2" width="2" x="19" y="48"/><rect height="2" width="2" x="23" y="48"/><rect height="2" width="2" x="27" y="48"/><rect height="2" width="2" x="31" y="48"/><rect height="2" width="2" x="35" y="48"/><rect height="2" width="2" x="39" y="48"/><rect height="2" width="2" x="43" y="48"/><rect height="2" width="2" x="47" y="48"/><rect height="2" width="2" x="19" y="52"/><rect height="2" width="2" x="23" y="52"/><rect height="2" width="2" x="39" y="52"/><rect height="2" width="2" x="43" y="52"/><rect height="2" width="2" x="47" y="52"/><rect height="2" width="10" x="27" y="52"/><path d="M45,36H38a1,1,0,0,0-1,1v1H31v2h6v1a1,1,0,0,0,1,1h7a1,1,0,0,0,1-1V37A1,1,0,0,0,45,36Zm-1,4H39V38h5Z"/><rect height="2" width="2" x="18" y="40"/></g></svg>